<svg xmlns="http://www.w3.org/2000/svg" width="185.139" height="164.034" viewBox="0 0 185.139 164.034"><defs><style>.a{fill:#8fb214;}</style></defs><path class="a" d="M139.344,116.378h17.439a44.309,44.309,0,0,0,44.259-44.259V60.687H189.61a44.334,44.334,0,0,0-41.546,29,44.336,44.336,0,0,0-41.547-29H95.086V72.119A44.308,44.308,0,0,0,139.344,116.378ZM189.61,66.111h6.007v6.007a38.879,38.879,0,0,1-38.835,38.835h-6.006v-6.007A38.879,38.879,0,0,1,189.61,66.111Zm-89.1,0h6.007a38.878,38.878,0,0,1,38.834,38.835v6.007h-6.007A38.878,38.878,0,0,1,100.51,72.119Zm0,0" transform="translate(-60.703 -38.743)"/><path class="a" d="M156.579,12.79c5.852,2.424,7.534,3.024,10.444,4.738a44.077,44.077,0,0,0-2.966,6.363l5.082,1.9a38.536,38.536,0,0,1,8.928-13.868l4.249-4.247,4.247,4.247a38.524,38.524,0,0,1,8.928,13.868l5.082-1.9a44.08,44.08,0,0,0-2.965-6.363c2.908-1.712,4.579-2.308,10.443-4.738,2.482,5.993,2.459,5.92,2.766,6.732l5.075-1.917c-.349-.924-.114-.338-4.906-11.9-11.3,4.68-12.84,5.187-16.347,7.279C192.167,9.664,190.8,8.481,182.316,0c-8.464,8.464-9.855,9.669-12.325,12.982-3.507-2.092-5.047-2.6-16.347-7.279-4.771,11.518-4.56,10.985-4.906,11.9l5.075,1.914C154.11,18.735,154.051,18.894,156.579,12.79Zm0,0" transform="translate(-94.955)"/><path class="a" d="M172.517,199.172H155.136l-35.312,35.314h-9.917V221.831l-6.985-6.985H41.448L0,256.295l34.89,34.89,12.539-12.539h70.857l66.854-66.852Zm-56.477,74.05H47.429L36.267,262.059,32.431,265.9,42.47,275.934l-7.579,7.581L7.671,256.295,43.7,220.27h56.979l3.808,3.808v11.458l-3.808,3.808h-32.7v5.424h34.945l4.859-4.859H122.07L157.383,204.6h12.888l7.2,7.2Zm0,0" transform="translate(0 -127.151)"/><path class="a" d="M311.145,216.489l3.835,3.835,23.2-23.2h9.188V191.7H335.934Zm0,0" transform="translate(-198.635 -122.381)"/><path class="a" d="M312.188,316.539l-3.836-3.835,25.986-25.986,3.835,3.836ZM340.73,288l-3.836-3.835,3.835-3.835,3.836,3.835Zm6.393-6.393-3.836-3.835,3.835-3.835,3.836,3.835Zm0,0" transform="translate(-196.852 -174.879)"/><path class="a" d="M299.8,125.281l-2.112-5A29.807,29.807,0,0,0,311.262,108.8l4.574,2.917A35.223,35.223,0,0,1,299.8,125.281Zm17.96-16.98-4.87-2.39a29.7,29.7,0,0,0,1.808-4.623l5.2,1.544A35.057,35.057,0,0,1,317.755,108.3Zm3.041-9.286-5.341-.949a30.13,30.13,0,0,0,.459-4.945l5.424.052A35.579,35.579,0,0,1,320.8,99.015Zm0,0" transform="translate(-190.041 -59.448)"/><path class="a" d="M243.137,55.647a29.446,29.446,0,0,0-6.894-11.13l3.872-3.8a34.853,34.853,0,0,1,8.153,13.166Zm0,0" transform="translate(-150.817 -25.995)"/></svg>